<svg xmlns="http://www.w3.org/2000/svg" viewBox="0 0 1600 900"><defs><linearGradient id="a" x1="0" y1="0" x2="0" y2="1"><stop offset="0" stop-color="#0b1026"/><stop offset=".7" stop-color="#312e81"/><stop offset="1" stop-color="#7c2d12"/></linearGradient><radialGradient id="l"><stop offset="0" stop-color="#fef3c7"/><stop offset=".5" stop-color="#fbbf24"/><stop offset="1" stop-color="#f97316" stop-opacity="0"/></radialGradient></defs><rect width="1600" height="900" fill="url(#a)"/><circle cx="1440" cy="300" r="60" fill="#fef9c3"/><g fill="url(#l)"><circle cx="250" cy="420" r="60"/><circle cx="420" cy="300" r="45"/><circle cx="600" cy="460" r="55"/><circle cx="760" cy="330" r="40"/><circle cx="930" cy="440" r="60"/><circle cx="1100" cy="300" r="45"/><circle cx="1250" cy="450" r="55"/><circle cx="1330" cy="380" r="40"/><circle cx="340" cy="560" r="35"/><circle cx="1000" cy="580" r="35"/><circle cx="160" cy="260" r="30"/><circle cx="1500" cy="560" r="35"/></g><rect y="700" width="1600" height="200" fill="#1e1b4b"/><g fill="#fbbf24"><path d="M380 760h80l-10 22h-60z"/><circle cx="420" cy="752" r="8" fill="#fef3c7"/><path d="M820 800h80l-10 22h-60z"/><circle cx="860" cy="792" r="8" fill="#fef3c7"/><path d="M1180 770h80l-10 22h-60z"/><circle cx="1220" cy="762" r="8" fill="#fef3c7"/></g><text x="800" y="130" text-anchor="middle" font-family="system-ui,sans-serif" font-weight="800" font-size="76" fill="#fff">LOY KRATHONG &amp; YI PENG 2026</text><text x="800" y="200" text-anchor="middle" font-family="system-ui,sans-serif" font-weight="600" font-size="40" fill="#fde68a">Chiang Mai · 24–25 November</text></svg>
