<svg xmlns="http://www.w3.org/2000/svg" viewBox="0 0 1600 900"><defs><linearGradient id="a" x1="0" y1="0" x2="1" y2="1"><stop offset="0" stop-color="#1e3a8a"/><stop offset="1" stop-color="#0e7490"/></linearGradient></defs><rect width="1600" height="900" fill="url(#a)"/><g transform="translate(330 300)"><rect width="300" height="420" rx="18" fill="#7f1d1d"/><circle cx="150" cy="170" r="70" fill="none" stroke="#fcd34d" stroke-width="8"/><path d="M80 170h140M150 100v140" stroke="#fcd34d" stroke-width="6"/><text x="150" y="320" text-anchor="middle" font-family="system-ui,sans-serif" font-weight="700" font-size="30" fill="#fcd34d">MALAYSIA</text><text x="150" y="360" text-anchor="middle" font-family="system-ui,sans-serif" font-size="22" fill="#fcd34d">PASSPORT</text></g><g transform="translate(900 250)"><rect width="300" height="560" rx="40" fill="#0f172a"/><rect x="18" y="50" width="264" height="460" rx="12" fill="#f8fafc"/><text x="150" y="110" text-anchor="middle" font-family="system-ui,sans-serif" font-weight="800" font-size="34" fill="#1e3a8a">TDAC</text><g fill="#0f172a"><rect x="60" y="150" width="180" height="180" fill="none" stroke="#0f172a" stroke-width="10"/><rect x="85" y="175" width="45" height="45"/><rect x="170" y="175" width="45" height="45"/><rect x="85" y="260" width="45" height="45"/><rect x="150" y="240" width="20" height="20"/><rect x="185" y="270" width="30" height="30"/></g><rect x="60" y="370" width="180" height="16" rx="8" fill="#cbd5e1"/><rect x="60" y="400" width="130" height="16" rx="8" fill="#cbd5e1"/><rect x="60" y="440" width="180" height="44" rx="22" fill="#16a34a"/><path d="M125 462l15 14 30-28" stroke="#fff" stroke-width="7" fill="none"/></g><text x="800" y="130" text-anchor="middle" font-family="system-ui,sans-serif" font-weight="800" font-size="78" fill="#fff">THAILAND TDAC</text><text x="800" y="200" text-anchor="middle" font-family="system-ui,sans-serif" font-weight="600" font-size="40" fill="#bae6fd">Step-by-step for Malaysians</text></svg>
